<svg xmlns="http://www.w3.org/2000/svg" width="212" height="212" viewBox="0 0 212 212">
  <g id="double_rond" data-name="double rond" transform="translate(215 -1763)">
    <path id="Rond_orange" data-name="Rond orange" d="M106,15a91,91,0,1,0,91,91,91.1,91.1,0,0,0-91-91m0-15A106,106,0,1,1,0,106,106,106,0,0,1,106,0Z" transform="translate(-215 1763)" fill="#993415"/>
    <path id="Rond_orange-2" data-name="Rond orange" d="M75.9,5A70.544,70.544,0,0,0,36.262,17.105,71.12,71.12,0,0,0,10.569,48.3a70.8,70.8,0,0,0,6.536,67.232,71.12,71.12,0,0,0,31.2,25.692,70.8,70.8,0,0,0,67.232-6.536,71.12,71.12,0,0,0,25.692-31.2,70.8,70.8,0,0,0-6.536-67.232,71.12,71.12,0,0,0-31.2-25.692A70.45,70.45,0,0,0,75.9,5m0-5A75.9,75.9,0,1,1,0,75.9,75.9,75.9,0,0,1,75.9,0Z" transform="translate(-184.898 1793.102)" fill="#d97d0e"/>
  </g>
</svg>
