<svg xmlns="http://www.w3.org/2000/svg" width="31.5" height="36" viewBox="0 0 31.5 36">
  <path id="Icon_awesome-birthday-cake" data-name="Icon awesome-birthday-cake" d="M31.5,27c-1.97,0-2.2-2.25-5.238-2.25S22.969,27,21.006,27c-1.947,0-2.212-2.25-5.256-2.25-3.012,0-3.32,2.25-5.238,2.25-1.979,0-2.194-2.25-5.256-2.25S1.976,27,0,27V21.375A3.376,3.376,0,0,1,3.375,18H4.5V7.875H9V18h4.5V7.875H18V18h4.5V7.875H27V18h1.125A3.376,3.376,0,0,1,31.5,21.375Zm0,9H0V29.25C3.048,29.25,3.288,27,5.256,27s2.2,2.25,5.256,2.25c3.012,0,3.32-2.25,5.238-2.25,1.979,0,2.194,2.25,5.256,2.25S24.294,27,26.262,27c1.933,0,2.2,2.25,5.238,2.25ZM6.75,6.75A2.243,2.243,0,0,1,4.5,4.5C4.5,2.32,6.75,2.883,6.75,0,7.594,0,9,2.074,9,3.938S8,6.75,6.75,6.75Zm9,0A2.243,2.243,0,0,1,13.5,4.5c0-2.18,2.25-1.617,2.25-4.5C16.594,0,18,2.074,18,3.938S17,6.75,15.75,6.75Zm9,0A2.243,2.243,0,0,1,22.5,4.5c0-2.18,2.25-1.617,2.25-4.5C25.594,0,27,2.074,27,3.938S26,6.75,24.75,6.75Z" fill="#d97d0e"/>
</svg>
