<svg id="Calque_2" data-name="Calque 2" xmlns="http://www.w3.org/2000/svg" width="39.766" height="75" viewBox="0 0 429.18 809.44"><defs><style>.cls-1{fill:#993415;}.cls-2{fill:#d97d0e;}</style></defs><rect class="cls-1" x="93.64" y="91.68" width="25.32" height="626.07"/><path class="cls-1" d="M493.56,641.22,286.31,434a12.66,12.66,0,0,1,0-17.9L494.1,208.28,512,226.19,313.16,425l198.3,198.29Z" transform="translate(-83.05 -16.23)"/><path class="cls-2" d="M83.23,136.67,486.64,418.82c9.67,6.73,9.67,17.65,0,24.38l-403.41,282v-29L462.56,431,83.05,165.67Z" transform="translate(-83.05 -16.23)"/><rect class="cls-1" x="51.64" width="32.73" height="809.44"/><path class="cls-1" d="M488.38,705.74,220.43,437.8a16.37,16.37,0,0,1,0-23.15L489.08,146l23.15,23.14L255.15,426.22,511.52,682.59Z" transform="translate(-83.05 -16.23)"/></svg>