<svg id="LogoKinder" xmlns="http://www.w3.org/2000/svg" width="39.766" height="75" viewBox="0 0 39.766 75">
  <rect id="Rectangle_1" data-name="Rectangle 1" width="2.346" height="58.01" transform="translate(8.676 8.495)" fill="#fff"/>
  <path id="Tracé_1" data-name="Tracé 1" d="M302.15,248.395l-19.2-19.2a1.173,1.173,0,0,1,0-1.659L302.2,208.28l1.659,1.659-18.424,18.421,18.374,18.373Z" transform="translate(-264.114 -190.485)" fill="#fff"/>
  <path id="Tracé_2" data-name="Tracé 2" d="M83.067,136.67l37.379,26.143a1.285,1.285,0,0,1,0,2.259L83.067,191.2v-2.687l35.147-24.573L83.05,139.357Z" transform="translate(-83.05 -125.51)" fill="#fff"/>
  <rect id="Rectangle_2" data-name="Rectangle 2" width="3.033" height="75" transform="translate(4.785)" fill="#fff"/>
  <path id="Tracé_3" data-name="Tracé 3" d="M240.907,197.864,216.08,173.037a1.517,1.517,0,0,1,0-2.145L240.972,146l2.145,2.144-23.82,23.82,23.754,23.754Z" transform="translate(-203.351 -133.976)" fill="#fff"/>
</svg>
