<svg xmlns="http://www.w3.org/2000/svg" width="207.236" height="207.237" viewBox="0 0 207.236 207.237">
  <path id="Triangle_haut_" data-name="Triangle haut " d="M88.5,19.958A10.092,10.092,0,0,0,83.62,21.2a9.83,9.83,0,0,0-3.776,3.747L17.349,132.993a9.829,9.829,0,0,0-1.365,5.148,10.177,10.177,0,0,0,4.881,8.463,9.829,9.829,0,0,0,5.14,1.4h124.99a9.829,9.829,0,0,0,5.14-1.4,10.177,10.177,0,0,0,4.881-8.463,9.829,9.829,0,0,0-1.365-5.148L97.156,24.951A9.83,9.83,0,0,0,93.38,21.2a10.092,10.092,0,0,0-4.88-1.246m0-5a14.86,14.86,0,0,1,12.984,7.489l62.495,108.042A15,15,0,0,1,150.995,153H26.005a15,15,0,0,1-12.984-22.511L75.516,22.447A14.86,14.86,0,0,1,88.5,14.958Z" transform="translate(100.421 -18.343) rotate(45)" fill="#993415" opacity="0.47"/>
</svg>
